<svg width="595" height="153" viewBox="0 0 595 153" fill="none" xmlns="http://www.w3.org/2000/svg">
<path d="M171.284 69.2841C170.568 66.7955 169.563 64.5966 168.267 62.6875C166.972 60.7443 165.386 59.108 163.511 57.7784C161.67 56.4148 159.557 55.375 157.17 54.6591C154.818 53.9432 152.21 53.5852 149.347 53.5852C143.994 53.5852 139.29 54.9148 135.233 57.5739C131.21 60.233 128.074 64.1023 125.824 69.1818C123.574 74.2273 122.449 80.3977 122.449 87.6932C122.449 94.9886 123.557 101.193 125.773 106.307C127.989 111.42 131.125 115.324 135.182 118.017C139.239 120.676 144.028 122.006 149.551 122.006C154.563 122.006 158.841 121.119 162.386 119.347C165.966 117.54 168.693 115 170.568 111.727C172.477 108.455 173.432 104.585 173.432 100.119L177.932 100.784H150.932V84.1136H194.756V97.3068C194.756 106.511 192.813 114.42 188.926 121.034C185.04 127.614 179.688 132.693 172.869 136.273C166.051 139.818 158.244 141.591 149.449 141.591C139.631 141.591 131.006 139.426 123.574 135.097C116.142 130.733 110.347 124.545 106.188 116.534C102.063 108.489 100 98.9432 100 87.8977C100 79.4091 101.227 71.8409 103.682 65.1932C106.17 58.5114 109.648 52.8523 114.114 48.2159C118.58 43.5795 123.778 40.0511 129.71 37.6307C135.642 35.2102 142.068 34 148.989 34C154.92 34 160.443 34.8693 165.557 36.608C170.67 38.3125 175.205 40.733 179.159 43.8693C183.148 47.0057 186.403 50.7386 188.926 55.0682C191.449 59.3636 193.068 64.1023 193.784 69.2841H171.284ZM211.388 140.159V35.4318H252.706C260.615 35.4318 267.365 36.8466 272.956 39.6761C278.581 42.4716 282.859 46.4432 285.791 51.5909C288.757 56.7045 290.24 62.7216 290.24 69.642C290.24 76.5966 288.74 82.5795 285.74 87.5909C282.74 92.5682 278.393 96.3864 272.7 99.0455C267.041 101.705 260.189 103.034 252.143 103.034H224.479V85.2386H248.564C252.791 85.2386 256.303 84.6591 259.098 83.5C261.893 82.3409 263.973 80.6023 265.337 78.2841C266.734 75.9659 267.433 73.0852 267.433 69.642C267.433 66.1648 266.734 63.233 265.337 60.8466C263.973 58.4602 261.876 56.6534 259.047 55.4261C256.251 54.1648 252.723 53.5341 248.462 53.5341H233.53V140.159H211.388ZM267.945 92.5L293.973 140.159H269.53L244.064 92.5H267.945Z" fill="black"/>
<path d="M44.997 42.8708L44.7541 43.0728L37.5659 49.0684L37.1884 49.3845L33.7836 52.223L33.4061 52.5392L30.0001 55.3801L29.7056 55.6254L25.9834 58.7296L25.8403 58.8498L22.4344 61.6883L22.0857 61.9805L18.6509 64.8442L18.4634 65.0017V65.1604V67.8522V68.2201V68.5267V69.2012V128.718V129.975V141.431H33.9327V127.644C33.9327 119.334 40.6689 112.597 48.9788 112.597C57.2887 112.597 64.0273 119.334 64.0273 127.644V141.431H77.1054V69.2012V68.5267V68.2201V67.8522V65.1604V65.0017L73.1476 61.7003L73.1331 61.6883L65.9461 55.6939L65.7537 55.5329L62.1638 52.5392L61.7851 52.223L58.2097 49.2427L58.0017 49.0684L54.5969 46.2286L54.2194 45.9125L47.785 40.5456L44.997 42.8708ZM42.8365 71.3724C42.8365 68.6409 45.0523 66.4264 47.785 66.4264C50.5165 66.4264 52.731 68.6409 52.731 71.3724V82.0917H42.8365V71.3724ZM42.8365 91.1602C42.8365 88.4275 45.0523 86.213 47.785 86.213C50.5165 86.213 52.731 88.4275 52.731 91.1602V101.878H42.8365V91.1602Z" fill="url(#paint0_linear_45_662)"/>
<path d="M0 141.343H119.045L96.0573 127.138C67.1933 109.3 33.932 99.851 0 99.851V141.343Z" fill="url(#paint1_linear_45_662)"/>
<path d="M4.77869 141.343H17.568C28.0307 128.094 45.5707 113.752 72.1373 114.702C72.132 114.699 72.128 114.696 72.124 114.695C71.7614 114.624 68.1507 113.94 62.4934 113.94C49.3307 113.94 25.0747 117.636 4.77869 141.343Z" fill="url(#paint2_linear_45_662)"/>
<path d="M36.7213 141.343H47.192C54.7253 130.232 65.8 119.494 80.7333 118.662C80.7026 118.647 80.672 118.631 80.64 118.615C80.168 118.567 79.132 118.48 77.6573 118.48C70.1426 118.48 51.1786 120.706 36.7213 141.343Z" fill="url(#paint3_linear_45_662)"/>
<path d="M63.192 141.343H68.9707C72.632 131.943 78.2694 123.447 86.8347 121.81C86.824 121.804 86.8134 121.798 86.8027 121.794C85.1827 121.89 71.3467 123.238 63.192 141.343Z" fill="url(#paint4_linear_45_662)"/>
<path d="M0 119.02V130.64C12.584 118.587 33.244 105.824 61.8347 110.634C61.8347 110.634 53.5227 107.824 41.0773 107.824C29.7573 107.824 15.0187 110.147 0 119.02Z" fill="url(#paint5_linear_45_662)"/>
<path d="M0 104.266V109.974C11.0827 104.742 24.736 101.823 40.9373 104.548C40.9373 104.548 40.7347 104.48 40.352 104.366C36.852 103.574 33.3267 102.887 29.7827 102.302C26.9893 101.971 23.7547 101.739 20.18 101.739C14.2427 101.739 7.36667 102.379 0 104.266Z" fill="url(#paint6_linear_45_662)"/>
<path d="M97.0306 127.138L74.0453 141.343H193.089V99.851C159.157 99.851 125.896 109.3 97.0306 127.138Z" fill="url(#paint7_linear_45_662)"/>
<path d="M120.967 114.695C120.965 114.695 120.964 114.696 120.963 114.696C120.959 114.699 120.956 114.7 120.953 114.702C147.519 113.752 165.059 128.094 175.521 141.343H188.311C168.017 117.639 143.76 113.94 130.596 113.94C124.937 113.94 121.328 114.624 120.967 114.695Z" fill="url(#paint8_linear_45_662)"/>
<path d="M112.449 118.615C112.435 118.623 112.42 118.63 112.404 118.638C112.388 118.646 112.373 118.654 112.356 118.662C127.291 119.494 138.365 130.232 145.896 141.343H156.368C141.912 120.708 122.948 118.48 115.432 118.48C113.956 118.48 112.923 118.567 112.449 118.615Z" fill="url(#paint9_linear_45_662)"/>
<path d="M106.264 121.806C106.26 121.807 106.257 121.808 106.255 121.81C114.821 123.447 120.456 131.943 124.12 141.343H129.897C121.744 123.238 107.907 121.89 106.288 121.794C106.28 121.796 106.272 121.802 106.264 121.806Z" fill="url(#paint10_linear_45_662)"/>
<path d="M101.675 124.368C106.684 128.116 108.8 134.384 109.299 141.343H113.336C110.469 129.726 102.935 125.048 101.703 124.352C101.695 124.359 101.684 124.364 101.675 124.368Z" fill="url(#paint11_linear_45_662)"/>
<path d="M96.6533 127.371C98.408 129.566 98.096 134.903 96.7786 141.343H98.7653C100.209 130.379 97.264 127.752 96.6866 127.351L96.6533 127.371Z" fill="url(#paint12_linear_45_662)"/>
<path d="M131.255 110.634C159.847 105.824 180.505 118.587 193.089 130.64V119.02C178.073 110.148 163.332 107.824 152.012 107.824C139.564 107.824 131.255 110.634 131.255 110.634Z" fill="url(#paint13_linear_45_662)"/>
<path d="M163.307 102.302C159.763 102.887 156.239 103.574 152.74 104.366H152.737C152.353 104.48 152.153 104.548 152.153 104.548C168.355 101.823 182.008 104.742 193.089 109.974V104.266C185.724 102.379 178.845 101.739 172.909 101.739C169.333 101.739 166.1 101.971 163.307 102.302Z" fill="url(#paint14_linear_45_662)"/>
<path d="M168.916 77.4563L162.584 99.2563C161.164 104.154 164.911 108.916 170.368 109.655V125.712H173.308V109.655C178.872 108.903 182.635 103.971 181.015 99.015L173.951 77.3883C173.588 76.2763 172.517 75.7257 171.445 75.7257C170.348 75.7257 169.249 76.3057 168.916 77.4563Z" fill="url(#paint15_linear_45_662)"/>
<path d="M325.533 13.2064C330.556 19.2451 329.73 28.2131 323.692 33.2344C317.652 38.2571 308.685 37.4317 303.662 31.3931C298.641 25.3531 299.465 16.3864 305.505 11.3651C311.544 6.34242 320.51 7.16642 325.533 13.2064Z" fill="#F3CC00"/>
<path d="M300.339 5.32683L302.578 8.01883" stroke="#F3CC00" stroke-width="1.33333" stroke-miterlimit="10"/>
<path d="M308.898 1.16144L309.79 4.54544" stroke="#F3CC00" stroke-width="1.33333" stroke-miterlimit="10"/>
<path d="M318.417 1L317.795 4.444" stroke="#F3CC00" stroke-width="1.33333" stroke-miterlimit="10"/>
<path d="M327.112 4.87373L325.095 7.73373" stroke="#F3CC00" stroke-width="1.33333" stroke-miterlimit="10"/>
<path d="M333.358 12.0573L330.321 13.7973" stroke="#F3CC00" stroke-width="1.33333" stroke-miterlimit="10"/>
<path d="M335.986 21.2065L332.498 21.5011" stroke="#F3CC00" stroke-width="1.33333" stroke-miterlimit="10"/>
<path d="M334.503 30.61L331.217 29.4047" stroke="#F3CC00" stroke-width="1.33333" stroke-miterlimit="10"/>
<path d="M329.188 38.5072L326.719 36.0272" stroke="#F3CC00" stroke-width="1.33333" stroke-miterlimit="10"/>
<path d="M321.034 43.4205L319.844 40.1285" stroke="#F3CC00" stroke-width="1.33333" stroke-miterlimit="10"/>
<path d="M311.57 44.431L311.88 40.9443" stroke="#F3CC00" stroke-width="1.33333" stroke-miterlimit="10"/>
<path d="M302.562 41.349L304.317 38.321" stroke="#F3CC00" stroke-width="1.33333" stroke-miterlimit="10"/>
<path d="M295.7 34.752L298.57 32.748" stroke="#F3CC00" stroke-width="1.33333" stroke-miterlimit="10"/>
<path d="M292.266 25.8737L295.713 25.2684" stroke="#F3CC00" stroke-width="1.33333" stroke-miterlimit="10"/>
<path d="M292.904 16.3756L296.284 17.2836" stroke="#F3CC00" stroke-width="1.33333" stroke-miterlimit="10"/>
<path d="M85.171 8.24781L82.0835 11.3363C82.0825 11.3373 82.0815 11.3373 82.0815 11.3383L79.1159 14.303H79.1148L76.1512 17.2676C76.1512 17.2686 76.1502 17.2686 76.1492 17.2686C76.1492 17.2696 76.1492 17.2706 76.1482 17.2706L73.1856 20.2342H73.1846C73.1835 20.2353 73.1836 20.2353 73.1836 20.2363L70.2169 23.2009L67.2523 26.1675C67.2513 26.1686 67.2503 26.1686 67.2503 26.1686L64.2867 29.1332C64.2867 29.1332 64.2857 29.1342 64.2846 29.1342L55.9028 37.517L57.3252 44.5071L49.1083 52.7241C48.6557 52.5059 48.1559 52.3739 47.6203 52.3739C47.1104 52.3739 46.6301 52.4916 46.1939 52.6913L38.0087 44.5071L39.4331 37.517L31.0493 29.1342V29.1332H31.0472L28.0836 26.1686C28.0826 26.1686 28.0826 26.1686 28.0826 26.1675L25.117 23.2009L22.1524 20.2363C22.1524 20.2353 22.1514 20.2353 22.1514 20.2342H22.1493L19.1857 17.2706C19.1857 17.2696 19.1857 17.2696 19.1847 17.2686C19.1847 17.2686 19.1837 17.2686 19.1837 17.2676L16.2191 14.304V14.303L13.2534 11.3383C13.2524 11.3383 13.2524 11.3373 13.2524 11.3363L10.1629 8.24781C9.83313 7.91807 9.24943 7.91807 8.91866 8.24781L0.257291 16.9102C-0.0857637 17.2532 -0.0857637 17.8103 0.257291 18.1534L3.34683 21.2429L15.2104 33.1075L21.1427 39.0398L21.1437 39.0408L24.1083 42.0054L24.1093 42.0064L29.7836 47.6806L36.4931 46.1159L36.5617 46.0463L44.6373 54.1219C44.3506 54.6247 44.1734 55.2002 44.1734 55.8208C44.1734 56.2714 44.2656 56.6994 44.4223 57.0936L36.5617 64.9542L36.4931 64.8846L29.7836 63.3199L24.1083 68.9951L21.1437 71.9597L21.1427 71.9607V71.9618L15.2114 77.892C15.2114 77.893 15.2104 77.893 15.2104 77.893L3.34786 89.7566H3.34683C3.34683 89.7576 3.34685 89.7576 3.34583 89.7576L0.257291 92.8471C-0.0857637 93.1902 -0.0857637 93.7473 0.257291 94.0914L8.91866 102.753C9.24943 103.082 9.83313 103.082 10.1629 102.753L13.2514 99.6652C13.2514 99.6642 13.2524 99.6642 13.2524 99.6642C13.2524 99.6632 13.2524 99.6631 13.2534 99.6621L16.218 96.6975C16.2191 96.6975 16.2191 96.6975 16.2191 96.6975V96.6965L19.1837 93.7329L19.1847 93.7319C19.1857 93.7309 19.1857 93.7298 19.1857 93.7298L22.1483 90.7663C22.1493 90.7663 22.1514 90.7663 22.1514 90.7663C22.1514 90.7653 22.1524 90.7652 22.1524 90.7642L25.116 87.7996L28.0816 84.834L28.0826 84.833C28.0826 84.8319 28.0826 84.8319 28.0836 84.8319L31.0472 81.8684L31.0493 81.8673C31.0493 81.8673 31.0493 81.8663 31.0503 81.8663L36.9816 75.935L39.4331 73.4835L38.0087 66.4934L45.7771 58.726C46.3116 59.065 46.9404 59.2687 47.6203 59.2687C48.3249 59.2687 48.9782 59.0547 49.5241 58.6932L57.3252 66.4934L55.9028 73.4835L58.3534 75.935L64.2846 81.8663C64.2846 81.8663 64.2846 81.8673 64.2857 81.8673C64.2857 81.8673 64.2867 81.8673 64.2867 81.8684L67.2503 84.8319C67.2503 84.8319 67.2503 84.8319 67.2513 84.833C67.2513 84.833 67.2513 84.834 67.2523 84.834L70.2169 87.7996L73.1836 90.7642C73.1836 90.7652 73.1835 90.7653 73.1846 90.7663H73.1856L76.1482 93.7298C76.1492 93.7298 76.1492 93.7309 76.1492 93.7319C76.1502 93.7319 76.1512 93.7329 76.1512 93.7329L79.1148 96.6965C79.1148 96.6965 79.1148 96.6975 79.1159 96.6975L82.0815 99.6632C82.0815 99.6632 82.0815 99.6632 82.0825 99.6642L85.171 102.753C85.4997 103.082 86.0855 103.082 86.4152 102.753L95.0766 94.0914C95.4207 93.7473 95.4207 93.1902 95.0766 92.8471L91.9871 89.7576L91.986 89.7566L80.1245 77.893C80.1235 77.893 80.1235 77.893 80.1235 77.893L74.1912 71.9618C74.1912 71.9607 74.1902 71.9607 74.1902 71.9607V71.9597L71.2256 68.9951L65.5503 63.3199L58.8429 64.8846L58.7722 64.9542L50.841 57.023C50.9813 56.6482 51.0673 56.2458 51.0673 55.8208C51.0673 55.2248 50.9024 54.6718 50.6362 54.1823L58.7722 46.0463L58.8429 46.1159L65.5503 47.6806L71.2246 42.0064C71.2246 42.0054 71.2246 42.0054 71.2256 42.0054L74.1902 39.0408L74.1912 39.0398L80.1235 33.1075C80.1235 33.1075 80.1235 33.1075 80.1245 33.1075L91.9871 21.2439L95.0766 18.1534C95.4207 17.8103 95.4207 17.2532 95.0766 16.9102L86.4152 8.24781C86.2504 8.08294 86.021 7.99998 85.7926 7.99998C85.5642 7.99998 85.3359 8.08294 85.171 8.24781ZM83.9483 11.9589L85.7926 10.1146L93.2098 17.5318L91.3655 19.3771L83.9483 11.9589ZM2.12412 17.5318L9.54128 10.1146L11.3866 11.9589L3.96945 19.3771L2.12412 17.5318ZM80.9817 14.9246L82.7051 13.2031L90.1202 20.6213L88.3998 22.3427L80.9817 14.9246ZM5.21366 20.6213L12.6308 13.2031L14.3522 14.9246L6.93508 22.3427L5.21366 20.6213ZM78.016 17.8923L79.7374 16.1698L82.7 19.1313L80.9786 20.8538L78.016 17.8923ZM12.6339 19.1313L15.5964 16.1698L17.3189 17.8923L14.3563 20.8538L12.6339 19.1313ZM75.0494 20.8579L76.7718 19.1365L79.7344 22.097L78.0119 23.8194L75.0494 20.8579ZM15.6005 22.097L18.5621 19.1365L20.2835 20.8579L17.323 23.8194L15.6005 22.097ZM82.4716 22.3468L84.193 20.6254L87.1556 23.588L85.4342 25.3094L82.4716 22.3468ZM8.17932 23.588L11.1409 20.6254L12.8643 22.3468L9.90174 25.3094L8.17932 23.588ZM72.0837 23.8235L73.8062 22.1021L76.7687 25.0636L75.0463 26.7861L72.0837 23.8235ZM18.5672 25.0636L21.5287 22.1021L23.2501 23.8235L20.2886 26.7861L18.5672 25.0636ZM79.505 25.3125L81.2274 23.59L84.19 26.5526L82.4665 28.275L79.505 25.3125ZM11.1449 26.5526L14.1075 23.59L15.8299 25.3125L12.8674 28.275L11.1449 26.5526ZM69.1181 26.7902L70.8395 25.0677L73.8021 28.0303L72.0796 29.7517L69.1181 26.7902ZM21.5328 28.0303L24.4954 25.0677L26.2158 26.7902L23.2542 29.7517L21.5328 28.0303ZM76.5393 28.2791L78.2618 26.5567L81.2233 29.5192L79.5009 31.2407L76.5393 28.2791ZM14.1116 29.5192L17.0741 26.5567L18.7956 28.2791L15.833 31.2407L14.1116 29.5192ZM66.1525 29.7558L67.8739 28.0333L70.8354 30.9959L69.114 32.7184L66.1525 29.7558ZM24.4985 30.9959L27.461 28.0333L29.1824 29.7558L26.2199 32.7184L24.4985 30.9959ZM73.5727 31.2448L75.2951 29.5233L78.2567 32.4859L76.5352 34.2063L73.5727 31.2448ZM17.0772 32.4859L20.0398 29.5233L21.7612 31.2448L18.7986 34.2063L17.0772 32.4859ZM63.1848 32.7225L64.9083 31L67.8698 33.9626L66.1474 35.684L63.1848 32.7225ZM27.4651 33.9626L30.4277 31L32.1481 32.7225L29.1865 35.684L27.4651 33.9626ZM70.607 34.2114L72.3285 32.489L75.291 35.4505L73.5686 37.174L70.607 34.2114ZM20.0429 35.4505L23.0054 32.489L24.7268 34.2114L21.7653 37.174L20.0429 35.4505ZM60.2192 35.6881L61.9406 33.9667L64.9032 36.9282L63.1817 38.6496L60.2192 35.6881ZM30.4307 36.9282L33.3933 33.9667L35.1137 35.6881L32.1522 38.6496L30.4307 36.9282ZM67.6404 37.177L69.3628 35.4556L72.3254 38.4172L70.603 40.1396L67.6404 37.177ZM23.0105 38.4172L25.9721 35.4556L27.6925 37.177L24.7309 40.1396L23.0105 38.4172ZM57.826 38.0813L58.975 36.9323L61.9375 39.8938L58.847 42.9844L57.826 38.0813ZM33.3974 39.8938L36.3589 36.9323L37.5079 38.0813L36.4869 42.9844L33.3974 39.8938ZM64.6748 40.1427L66.3962 38.4213L69.3587 41.3838L67.6373 43.1052L64.6748 40.1427ZM25.9762 41.3838L28.9377 38.4213L30.6591 40.1427L27.6966 43.1052L25.9762 41.3838ZM60.34 44.4785L63.4306 41.3869L66.3931 44.3494L65.2063 45.5353L60.34 44.4785ZM28.9408 44.3494L31.9044 41.3869L34.9939 44.4785L30.1266 45.5353L28.9408 44.3494ZM60.34 66.522L65.2063 65.4652L66.3931 66.6511L63.4306 69.6136L60.34 66.522ZM28.9408 66.6511L30.1266 65.4652L34.9939 66.522L31.9044 69.6136L28.9408 66.6511ZM64.6748 70.8578L67.6373 67.8953L69.3587 69.6167L66.3962 72.5792L64.6748 70.8578ZM25.9751 69.6167L27.6966 67.8953L30.6591 70.8578L28.9377 72.5792L25.9751 69.6167ZM57.826 72.9192L58.847 68.0161L61.9375 71.1067L58.975 74.0682L57.826 72.9192ZM33.3974 71.1067L36.4869 68.0161L37.5079 72.9192L36.3589 74.0682L33.3974 71.1067ZM67.6404 73.8235L70.603 70.8609L72.3254 72.5833L69.3628 75.5449L67.6404 73.8235ZM23.0105 72.5833L24.7309 70.8609L27.6925 73.8235L25.9721 75.5449L23.0105 72.5833ZM60.2192 75.3124L63.1817 72.3509L64.9032 74.0723L61.9406 77.0349L60.2192 75.3124ZM30.4307 74.0723L32.1522 72.3509L35.1137 75.3124L33.3933 77.0349L30.4307 74.0723ZM70.607 76.7891L73.5686 73.8275L75.291 75.55L72.3285 78.5115L70.607 76.7891ZM20.0429 75.55L21.7653 73.8275L24.7268 76.7891L23.0054 78.5115L20.0429 75.55ZM63.1848 78.2791L66.1474 75.3165L67.8698 77.0379L64.9083 80.0005L63.1848 78.2791ZM27.4651 77.0379L29.1865 75.3165L32.1481 78.2791L30.4277 80.0005L27.4651 77.0379ZM73.5727 79.7557L76.5352 76.7942L78.2567 78.5156L75.2951 81.4772L73.5727 79.7557ZM17.0772 78.5156L18.7986 76.7942L21.7612 79.7557L20.0398 81.4772L17.0772 78.5156ZM66.1525 81.2457L69.114 78.2821L70.8354 80.0046L67.8739 82.9672L66.1525 81.2457ZM24.4985 80.0046L26.2199 78.2821L29.1824 81.2457L27.461 82.9672L24.4985 80.0046ZM76.5393 82.7214L79.5009 79.7598L81.2233 81.4813L78.2618 84.4438L76.5393 82.7214ZM14.1116 81.4813L15.833 79.7598L18.7956 82.7214L17.0741 84.4438L14.1116 81.4813ZM69.1181 84.2114L72.0796 81.2488L73.8021 82.9702L70.8395 85.9328L69.1181 84.2114ZM21.5328 82.9702L23.2542 81.2488L26.2158 84.2114L24.4954 85.9328L21.5328 82.9702ZM79.505 85.688L82.4665 82.7255L84.19 84.4479L81.2274 87.4094L79.505 85.688ZM11.1449 84.4479L12.8674 82.7255L15.8299 85.688L14.1075 87.4094L11.1449 84.4479ZM72.0837 87.177L75.0463 84.2144L76.7687 85.9369L73.8062 88.8984L72.0837 87.177ZM18.5672 85.9369L20.2886 84.2144L23.2501 87.177L21.5287 88.8984L18.5672 85.9369ZM82.4716 88.6547L85.4342 85.6921L87.1556 87.4125L84.193 90.3751L82.4716 88.6547ZM8.17932 87.4125L9.90174 85.6921L12.8643 88.6547L11.1409 90.3751L8.17932 87.4125ZM75.0494 90.1426L78.0119 87.1811L79.7344 88.9035L76.7718 91.864L75.0494 90.1426ZM15.6005 88.9035L17.323 87.1811L20.2835 90.1426L18.5621 91.864L15.6005 88.9035ZM80.9817 96.0759L88.3998 88.6577L90.1202 90.3802L82.7051 97.7974L80.9817 96.0759ZM5.21366 90.3802L6.93508 88.6577L14.3522 96.0759L12.6308 97.7974L5.21366 90.3802ZM78.016 93.1093L80.9786 90.1477L82.7 91.8692L79.7374 94.8307L78.016 93.1093ZM12.6339 91.8692L14.3563 90.1477L17.3189 93.1093L15.5964 94.8307L12.6339 91.8692ZM83.9483 99.0416L91.3655 91.6234L93.2098 93.4687L85.7926 100.887L83.9483 99.0416ZM2.12412 93.4687L3.96945 91.6234L11.3866 99.0416L9.54128 100.887L2.12412 93.4687Z" fill="url(#paint16_linear_45_662)"/>
<rect x="304" y="55" width="25" height="85" fill="black"/>
<path d="M389.665 49H385.261C385.001 47.7334 384.545 46.6207 383.894 45.6619C383.255 44.7031 382.474 43.8982 381.55 43.2472C380.639 42.5843 379.627 42.0871 378.514 41.7557C377.402 41.4242 376.241 41.2585 375.034 41.2585C372.832 41.2585 370.838 41.8149 369.05 42.9276C367.275 44.0402 365.86 45.6797 364.807 47.8459C363.765 50.0121 363.244 52.6695 363.244 55.8182C363.244 58.9669 363.765 61.6243 364.807 63.7905C365.86 65.9567 367.275 67.5961 369.05 68.7088C370.838 69.8215 372.832 70.3778 375.034 70.3778C376.241 70.3778 377.402 70.2121 378.514 69.8807C379.627 69.5492 380.639 69.058 381.55 68.407C382.474 67.7441 383.255 66.9332 383.894 65.9744C384.545 65.0038 385.001 63.8911 385.261 62.6364H389.665C389.333 64.4948 388.73 66.1579 387.854 67.6257C386.978 69.0935 385.889 70.3423 384.587 71.3722C383.285 72.3902 381.823 73.1655 380.201 73.6982C378.591 74.2308 376.869 74.4972 375.034 74.4972C371.933 74.4972 369.175 73.7396 366.76 72.2244C364.345 70.7093 362.445 68.5549 361.06 65.7614C359.675 62.9678 358.983 59.6534 358.983 55.8182C358.983 51.983 359.675 48.6686 361.06 45.875C362.445 43.0814 364.345 40.9271 366.76 39.4119C369.175 37.8968 371.933 37.1392 375.034 37.1392C376.869 37.1392 378.591 37.4055 380.201 37.9382C381.823 38.4709 383.285 39.2521 384.587 40.282C385.889 41.3 386.978 42.5428 387.854 44.0107C388.73 45.4666 389.333 47.1297 389.665 49ZM396.78 74V37.6364H401.184V53.8295H420.573V37.6364H424.976V74H420.573V57.7358H401.184V74H396.78ZM438.195 37.6364V74H433.792V37.6364H438.195ZM476.286 49H471.882C471.622 47.7334 471.166 46.6207 470.515 45.6619C469.876 44.7031 469.095 43.8982 468.172 43.2472C467.26 42.5843 466.248 42.0871 465.135 41.7557C464.023 41.4242 462.863 41.2585 461.655 41.2585C459.453 41.2585 457.459 41.8149 455.672 42.9276C453.896 44.0402 452.481 45.6797 451.428 47.8459C450.386 50.0121 449.865 52.6695 449.865 55.8182C449.865 58.9669 450.386 61.6243 451.428 63.7905C452.481 65.9567 453.896 67.5961 455.672 68.7088C457.459 69.8215 459.453 70.3778 461.655 70.3778C462.863 70.3778 464.023 70.2121 465.135 69.8807C466.248 69.5492 467.26 69.058 468.172 68.407C469.095 67.7441 469.876 66.9332 470.515 65.9744C471.166 65.0038 471.622 63.8911 471.882 62.6364H476.286C475.954 64.4948 475.351 66.1579 474.475 67.6257C473.599 69.0935 472.51 70.3423 471.208 71.3722C469.906 72.3902 468.444 73.1655 466.822 73.6982C465.212 74.2308 463.49 74.4972 461.655 74.4972C458.554 74.4972 455.796 73.7396 453.381 72.2244C450.966 70.7093 449.066 68.5549 447.681 65.7614C446.297 62.9678 445.604 59.6534 445.604 55.8182C445.604 51.983 446.297 48.6686 447.681 45.875C449.066 43.0814 450.966 40.9271 453.381 39.4119C455.796 37.8968 458.554 37.1392 461.655 37.1392C463.49 37.1392 465.212 37.4055 466.822 37.9382C468.444 38.4709 469.906 39.2521 471.208 40.282C472.51 41.3 473.599 42.5428 474.475 44.0107C475.351 45.4666 475.954 47.1297 476.286 49ZM483.401 74V37.6364H487.805V55.6761H488.231L504.566 37.6364H510.319L495.049 54.0426L510.319 74H504.992L492.35 57.0966L487.805 62.2102V74H483.401ZM516.019 74V37.6364H537.965V41.5426H520.422V53.8295H536.828V57.7358H520.422V70.0938H538.249V74H516.019ZM574.737 37.6364V74H570.475L550.66 45.4489H550.305V74H545.901V37.6364H550.163L570.049 66.2585H570.404V37.6364H574.737ZM359.54 140V99.2727H368.151V116.077H385.631V99.2727H394.222V140H385.631V123.176H368.151V140H359.54ZM401.321 140V99.2727H428.764V106.372H409.932V116.077H427.352V123.176H409.932V132.901H428.844V140H401.321ZM442.63 140H433.403L447.462 99.2727H458.559L472.599 140H463.371L453.17 108.58H452.852L442.63 140ZM442.053 123.991H463.849V130.713H442.053V123.991ZM477.501 140V99.2727H486.112V132.901H503.572V140H477.501ZM502.637 106.372V99.2727H536.086V106.372H523.617V140H515.106V106.372H502.637ZM541.594 140V99.2727H550.205V116.077H567.685V99.2727H576.276V140H567.685V123.176H550.205V140H541.594Z" fill="black"/>
<defs>
<linearGradient id="paint0_linear_45_662" x1="44.204" y1="39.9673" x2="49.6141" y2="135.546" gradientUnits="userSpaceOnUse">
<stop stop-color="#5AB918"/>
<stop offset="0.10747" stop-color="#58B716"/>
<stop offset="1" stop-color="#185605"/>
</linearGradient>
<linearGradient id="paint1_linear_45_662" x1="12.4525" y1="108.483" x2="47.7858" y2="133.15" gradientUnits="userSpaceOnUse">
<stop stop-color="#5AB918"/>
<stop offset="0.10747" stop-color="#5AB918"/>
<stop offset="1" stop-color="#009600"/>
</linearGradient>
<linearGradient id="paint2_linear_45_662" x1="4.77838" y1="127.642" x2="72.1372" y2="127.642" gradientUnits="userSpaceOnUse">
<stop stop-color="#438D10"/>
<stop offset="0.10747" stop-color="#438D10"/>
<stop offset="1" stop-color="#006C00"/>
</linearGradient>
<linearGradient id="paint3_linear_45_662" x1="36.721" y1="129.912" x2="80.7334" y2="129.912" gradientUnits="userSpaceOnUse">
<stop stop-color="#438D10"/>
<stop offset="0.10747" stop-color="#438D10"/>
<stop offset="1" stop-color="#006C00"/>
</linearGradient>
<linearGradient id="paint4_linear_45_662" x1="63.1915" y1="131.568" x2="86.8344" y2="131.568" gradientUnits="userSpaceOnUse">
<stop stop-color="#438D10"/>
<stop offset="0.10747" stop-color="#438D10"/>
<stop offset="1" stop-color="#006C00"/>
</linearGradient>
<linearGradient id="paint5_linear_45_662" x1="-0.000224" y1="119.232" x2="61.8346" y2="119.232" gradientUnits="userSpaceOnUse">
<stop stop-color="#438D10"/>
<stop offset="0.10747" stop-color="#438D10"/>
<stop offset="1" stop-color="#006C00"/>
</linearGradient>
<linearGradient id="paint6_linear_45_662" x1="-0.000224" y1="105.857" x2="40.9367" y2="105.857" gradientUnits="userSpaceOnUse">
<stop stop-color="#438D10"/>
<stop offset="0.10747" stop-color="#438D10"/>
<stop offset="1" stop-color="#006C00"/>
</linearGradient>
<linearGradient id="paint7_linear_45_662" x1="128.052" y1="109.565" x2="157.385" y2="168.232" gradientUnits="userSpaceOnUse">
<stop stop-color="#5AB918"/>
<stop offset="0.10747" stop-color="#5AB918"/>
<stop offset="1" stop-color="#009600"/>
</linearGradient>
<linearGradient id="paint8_linear_45_662" x1="120.952" y1="127.642" x2="188.311" y2="127.642" gradientUnits="userSpaceOnUse">
<stop stop-color="#438D10"/>
<stop offset="0.10747" stop-color="#438D10"/>
<stop offset="1" stop-color="#006C00"/>
</linearGradient>
<linearGradient id="paint9_linear_45_662" x1="112.356" y1="129.912" x2="156.368" y2="129.912" gradientUnits="userSpaceOnUse">
<stop stop-color="#438D10"/>
<stop offset="0.10747" stop-color="#438D10"/>
<stop offset="1" stop-color="#006C00"/>
</linearGradient>
<linearGradient id="paint10_linear_45_662" x1="106.255" y1="131.568" x2="129.898" y2="131.568" gradientUnits="userSpaceOnUse">
<stop stop-color="#438D10"/>
<stop offset="0.10747" stop-color="#438D10"/>
<stop offset="1" stop-color="#006C00"/>
</linearGradient>
<linearGradient id="paint11_linear_45_662" x1="101.675" y1="132.848" x2="113.336" y2="132.848" gradientUnits="userSpaceOnUse">
<stop stop-color="#438D10"/>
<stop offset="0.10747" stop-color="#438D10"/>
<stop offset="1" stop-color="#006C00"/>
</linearGradient>
<linearGradient id="paint12_linear_45_662" x1="96.6532" y1="134.347" x2="99.1592" y2="134.347" gradientUnits="userSpaceOnUse">
<stop stop-color="#438D10"/>
<stop offset="0.10747" stop-color="#438D10"/>
<stop offset="1" stop-color="#006C00"/>
</linearGradient>
<linearGradient id="paint13_linear_45_662" x1="131.255" y1="119.232" x2="193.09" y2="119.232" gradientUnits="userSpaceOnUse">
<stop stop-color="#438D10"/>
<stop offset="0.10747" stop-color="#438D10"/>
<stop offset="1" stop-color="#006C00"/>
</linearGradient>
<linearGradient id="paint14_linear_45_662" x1="152.153" y1="105.857" x2="193.09" y2="105.857" gradientUnits="userSpaceOnUse">
<stop stop-color="#438D10"/>
<stop offset="0.10747" stop-color="#438D10"/>
<stop offset="1" stop-color="#006C00"/>
</linearGradient>
<linearGradient id="paint15_linear_45_662" x1="162.282" y1="100.718" x2="181.394" y2="100.718" gradientUnits="userSpaceOnUse">
<stop stop-color="#30670A"/>
<stop offset="0.10747" stop-color="#30670A"/>
<stop offset="1" stop-color="#004500"/>
</linearGradient>
<linearGradient id="paint16_linear_45_662" x1="-0.000163847" y1="55.5003" x2="95.3345" y2="55.5003" gradientUnits="userSpaceOnUse">
<stop stop-color="#30670A"/>
<stop offset="0.10747" stop-color="#30670A"/>
<stop offset="1" stop-color="#004500"/>
</linearGradient>
</defs>
</svg>
